<?xml version="1.0" encoding="UTF-8" standalone="no"?>
<!-- Created with Inkscape (http://www.inkscape.org/) -->
<svg
   xmlns:dc="http://purl.org/dc/elements/1.1/"
   xmlns:cc="http://web.resource.org/cc/"
   xmlns:rdf="http://www.w3.org/1999/02/22-rdf-syntax-ns#"
   xmlns:svg="http://www.w3.org/2000/svg"
   xmlns="http://www.w3.org/2000/svg"
   xmlns:sodipodi="http://sodipodi.sourceforge.net/DTD/sodipodi-0.dtd"
   xmlns:inkscape="http://www.inkscape.org/namespaces/inkscape"
   width="841.88975pt"
   height="595.27559pt"
   id="svg2"
   sodipodi:version="0.32"
   inkscape:version="0.44"
   sodipodi:docbase="/home/dralex/bmstu/lug/doc-admin/presentation"
   sodipodi:docname="lect3-02.svg">
  <defs
     id="defs4">
    <marker
       inkscape:stockid="Arrow2Mstart"
       orient="auto"
       refY="0.0"
       refX="0.0"
       id="Arrow2Mstart"
       style="overflow:visible">
      <path
         sodipodi:nodetypes="cccc"
         id="path2179"
         style="font-size:12.0;fill-rule:evenodd;stroke-width:0.62500000;stroke-linejoin:round"
         d="M 8.7185878,4.0337352 L -2.2072895,0.016013256 L 8.7185884,-4.0017078 C 6.9730900,-1.6296469 6.9831476,1.6157441 8.7185878,4.0337352 z "
         transform="scale(0.6) translate(-5,0)" />
    </marker>
    <marker
       inkscape:stockid="Arrow2Mend"
       orient="auto"
       refY="0.0"
       refX="0.0"
       id="Arrow2Mend"
       style="overflow:visible;">
      <path
         sodipodi:nodetypes="cccc"
         id="path2316"
         style="font-size:12.0;fill-rule:evenodd;stroke-width:0.62500000;stroke-linejoin:round;"
         d="M 8.7185878,4.0337352 L -2.2072895,0.016013256 L 8.7185884,-4.0017078 C 6.9730900,-1.6296469 6.9831476,1.6157441 8.7185878,4.0337352 z "
         transform="scale(0.6) rotate(180) translate(-5,0)" />
    </marker>
  </defs>
  <sodipodi:namedview
     id="base"
     pagecolor="#ffffff"
     bordercolor="#666666"
     borderopacity="1.0"
     inkscape:pageopacity="0.0"
     inkscape:pageshadow="2"
     inkscape:zoom="0.55808112"
     inkscape:cx="531.04838"
     inkscape:cy="463.76182"
     inkscape:document-units="px"
     inkscape:current-layer="layer3"
     showguides="true"
     inkscape:guide-bbox="true"
     inkscape:window-width="997"
     inkscape:window-height="713"
     inkscape:window-x="41"
     inkscape:window-y="25">
    <sodipodi:guide
       orientation="horizontal"
       position="580.30078"
       id="guide1319" />
    <sodipodi:guide
       orientation="horizontal"
       position="99.418682"
       id="guide1321" />
    <sodipodi:guide
       orientation="vertical"
       position="61.180727"
       id="guide1325" />
    <sodipodi:guide
       orientation="vertical"
       position="989.59827"
       id="guide1327" />
  </sodipodi:namedview>
  <metadata
     id="metadata7">
    <rdf:RDF>
      <cc:Work
         rdf:about="">
        <dc:format>image/svg+xml</dc:format>
        <dc:type
           rdf:resource="http://purl.org/dc/dcmitype/StillImage" />
      </cc:Work>
    </rdf:RDF>
  </metadata>
  <g
     inkscape:groupmode="layer"
     id="layer4"
     inkscape:label="Содержимое" />
  <g
     inkscape:groupmode="layer"
     id="layer3"
     inkscape:label="Подпись">
    <text
       xml:space="preserve"
       style="font-size:24px;font-style:normal;font-variant:normal;font-weight:normal;font-stretch:normal;text-align:start;line-height:125%;writing-mode:lr-tb;text-anchor:start;fill:black;fill-opacity:1;stroke:none;stroke-width:1pt;stroke-linecap:butt;stroke-linejoin:miter;stroke-opacity:1;display:inline;font-family:Bitstream Vera Sans"
       x="907.34863"
       y="693.62036"
       id="text1334"
       sodipodi:linespacing="125%"><tspan
         sodipodi:role="line"
         id="tspan1336"
         x="907.34863"
         y="693.62036">02 / 12</tspan></text>
    <path
       style="fill:#e5e5e5;fill-rule:evenodd;stroke:black;stroke-width:1.28101182;stroke-miterlimit:4;stroke-dasharray:none"
       id="path2149"
       d="M 562.30935,245.92516 C 585.94401,220.56113 607.84932,238.31595 633.21335,243.84992 C 656.27155,249.03802 680.48267,235.89484 704.11734,231.1679 C 704.11734,237.50891 704.11734,243.73463 704.11734,250.07564 C 704.11734,256.41665 704.11734,262.64236 704.11734,268.98337 C 680.48267,268.98337 656.84801,268.98337 633.21335,268.98337 C 609.57868,268.98337 585.94401,268.98337 562.30935,268.98337 C 562.30935,265.17877 562.30935,261.25887 562.30935,257.45427 C 562.30935,253.53437 562.30935,249.72977 562.30935,245.92516 z "
       class="fil0 str0" />
    <polygon
       transform="matrix(4.539018,0,0,4.539018,434.8137,106.8314)"
       style="fill:none;fill-rule:evenodd;stroke:black;stroke-width:0.28222224;stroke-miterlimit:4;stroke-dasharray:none"
       id="polygon2151"
       points="28.0888,35.724 59.3308,35.724 59.3308,45.884 28.0888,45.884 28.0888,35.724 "
       class="fil1 str0" />
    <polygon
       transform="matrix(4.539018,0,0,4.539018,434.8137,106.8314)"
       style="fill:none;fill-rule:evenodd;stroke:black;stroke-width:0.28222224;stroke-miterlimit:4;stroke-dasharray:none"
       id="polygon2153"
       points="28.0888,45.884 59.3308,45.884 59.3308,56.0694 28.0888,56.0694 28.0888,45.884 "
       class="fil1 str0" />
    <polygon
       transform="matrix(4.539018,0,0,4.539018,434.8137,106.8314)"
       style="fill:none;fill-rule:evenodd;stroke:black;stroke-width:0.28222224;stroke-miterlimit:4;stroke-dasharray:none"
       id="polygon2155"
       points="28.0888,56.0694 59.3308,56.0694 59.3308,66.2294 28.0888,66.2294 28.0888,56.0694 "
       class="fil1 str0" />
    <polygon
       transform="matrix(4.539018,0,0,4.539018,434.8137,106.8314)"
       style="fill:none;fill-rule:evenodd;stroke:black;stroke-width:0.28222224;stroke-miterlimit:4;stroke-dasharray:none"
       id="polygon2157"
       points="28.0888,66.2294 59.3308,66.2294 59.3308,76.4148 28.0888,76.4148 28.0888,66.2294 "
       class="fil1 str0" />
    <polygon
       transform="matrix(4.539018,0,0,4.539018,434.8137,106.8314)"
       style="fill:none;fill-rule:evenodd;stroke:black;stroke-width:0.28222224;stroke-miterlimit:4;stroke-dasharray:none"
       id="polygon2159"
       points="28.0888,76.4148 59.3308,76.4148 59.3308,86.5748 28.0888,86.5748 28.0888,76.4148 "
       class="fil1 str0" />
    <path
       style="fill:#e5e5e5;fill-rule:evenodd;stroke:black;stroke-width:1.28101182;stroke-miterlimit:4;stroke-dasharray:none"
       id="path2161"
       d="M 562.30935,499.79608 C 585.94401,499.79608 609.57868,499.79608 633.21335,499.79608 C 656.84801,499.79608 680.48267,499.79608 704.11734,499.79608 C 704.11734,505.33005 704.11734,510.97931 704.11734,516.51328 C 704.11734,522.04726 704.11734,527.58123 704.11734,533.1152 C 680.48267,539.5715 659.03854,530.11763 633.21335,521.58609 C 610.73159,513.97688 585.94401,526.08244 562.30935,530.80938 C 562.30935,525.62128 562.30935,520.43318 562.30935,515.36037 C 562.30935,510.17228 562.30935,504.98418 562.30935,499.79608 z "
       class="fil0 str0" />
    <polygon
       transform="matrix(4.539018,0,0,4.539018,387.6698,106.8314)"
       style="fill:none;fill-rule:evenodd;stroke:black;stroke-width:0.28222224;stroke-miterlimit:4;stroke-dasharray:none"
       id="polygon2241"
       points="95.9576,14.134 121.485,14.134 121.485,20.6364 95.9576,20.6364 95.9576,14.134 "
       class="fil1 str0" />
    <polygon
       transform="matrix(4.539018,0,0,4.539018,387.6698,106.8314)"
       style="fill:#e5e5e5;fill-rule:evenodd;stroke:black;stroke-width:0.28222224;stroke-miterlimit:4;stroke-dasharray:none"
       id="polygon2243"
       points="95.9576,20.6364 121.485,20.6364 121.485,27.1642 95.9576,27.1642 95.9576,20.6364 "
       class="fil0 str0" />
    <polygon
       transform="matrix(4.539018,0,0,4.539018,387.6698,106.8314)"
       style="fill:#e5e5e5;fill-rule:evenodd;stroke:black;stroke-width:0.28222224;stroke-miterlimit:4;stroke-dasharray:none"
       id="polygon2245"
       points="95.9576,27.1642 121.485,27.1642 121.485,33.6666 95.9576,33.6666 95.9576,27.1642 "
       class="fil0 str0" />
    <polygon
       transform="matrix(4.539018,0,0,4.539018,387.6698,106.8314)"
       style="fill:none;fill-rule:evenodd;stroke:black;stroke-width:0.28222224;stroke-miterlimit:4;stroke-dasharray:none"
       id="polygon2247"
       points="95.9576,33.6666 121.485,33.6666 121.485,40.1944 95.9576,40.1944 95.9576,33.6666 "
       class="fil1 str0" />
    <polygon
       transform="matrix(4.539018,0,0,4.539018,387.6698,106.8314)"
       style="fill:#e5e5e5;fill-rule:evenodd;stroke:black;stroke-width:0.28222224;stroke-miterlimit:4;stroke-dasharray:none;fill-opacity:1"
       id="polygon2249"
       points="95.9576,40.1944 121.485,40.1944 121.485,46.7222 95.9576,46.7222 95.9576,40.1944 "
       class="fil1 str0" />
    <path
       style="fill:none;fill-rule:evenodd;stroke:black;stroke-width:1.28101182;stroke-miterlimit:4;stroke-dasharray:none"
       id="path2295"
       d="M 806.2193,360.06331 L 975.35129,360.06331 C 983.76754,360.06331 990.685,366.86549 990.685,375.28173 L 990.685,465.20876 C 990.685,473.62501 983.76754,480.42718 975.35129,480.42718 L 806.2193,480.42718 C 797.80305,480.42718 790.88559,473.62501 790.88559,465.20876 L 790.88559,375.28173 C 790.88559,366.86549 797.80305,360.06331 806.2193,360.06331 L 806.2193,360.06331 z "
       class="fil1 str0" />
    <polygon
       transform="matrix(4.539018,0,0,4.539018,311.1758,106.8314)"
       style="fill:#e5e5e5;fill-rule:evenodd;stroke:black;stroke-width:0.28222224;stroke-miterlimit:4;stroke-dasharray:none"
       id="polygon2297"
       points="116.786,70.2172 139.29,70.2172 139.29,74.4336 116.786,74.4336 116.786,70.2172 "
       class="fil0 str0" />
    <polygon
       transform="matrix(4.539018,0,0,4.539018,311.1758,106.8314)"
       style="fill:none;fill-rule:evenodd;stroke:black;stroke-width:0.28222224;stroke-miterlimit:4;stroke-dasharray:none"
       id="polygon2299"
       points="116.786,74.4336 139.29,74.4336 139.29,78.6246 116.786,78.6246 116.786,74.4336 "
       class="fil1 str0" />
    <polygon
       transform="matrix(4.539018,0,0,4.539018,311.1758,106.8314)"
       style="fill:none;fill-rule:evenodd;stroke:black;stroke-width:0.28222224;stroke-miterlimit:4;stroke-dasharray:none"
       id="polygon2301"
       points="116.786,61.4796 139.29,61.4796 139.29,65.696 116.786,65.696 116.786,61.4796 "
       class="fil1 str0" />
    <polygon
       transform="matrix(4.539018,0,0,4.539018,385.9307,106.8314)"
       style="fill:#e5e5e5;fill-rule:evenodd;stroke:black;stroke-width:0.28222224;stroke-miterlimit:4;stroke-dasharray:none"
       id="polygon2347"
       points="89.5822,90.0292 113.407,90.0292 113.407,95.922 89.5822,95.922 89.5822,90.0292 "
       class="fil0 str0" />
    <polygon
       transform="matrix(4.539018,0,0,4.539018,385.9307,106.8314)"
       style="fill:none;fill-rule:evenodd;stroke:black;stroke-width:0.28222224;stroke-miterlimit:4;stroke-dasharray:none"
       id="polygon2349"
       points="89.5822,95.922 113.407,95.922 113.407,101.789 89.5822,101.789 89.5822,95.922 "
       class="fil1 str0" />
    <polygon
       transform="matrix(4.539018,0,0,4.539018,385.9307,106.8314)"
       style="fill:#e5e5e5;fill-rule:evenodd;stroke:black;stroke-width:0.28222224;stroke-miterlimit:4;stroke-dasharray:none"
       id="polygon2351"
       points="89.5822,101.789 113.407,101.789 113.407,107.682 89.5822,107.682 89.5822,101.789 "
       class="fil0 str0" />
    <polygon
       transform="matrix(4.539018,0,0,4.539018,385.9307,106.8314)"
       style="fill:#e5e5e5;fill-rule:evenodd;stroke:black;stroke-width:0.28222224;stroke-miterlimit:4;stroke-dasharray:none"
       id="polygon2353"
       points="89.5822,107.682 113.407,107.682 113.407,113.55 89.5822,113.55 89.5822,107.682 "
       class="fil0 str0" />
    <text
       xml:space="preserve"
       style="font-size:15.37214184px;font-style:normal;font-variant:normal;font-weight:normal;font-stretch:normal;text-align:start;line-height:125%;writing-mode:lr-tb;text-anchor:start;fill:black;fill-opacity:1;fill-rule:evenodd;stroke:none;stroke-width:1pt;stroke-linecap:butt;stroke-linejoin:miter;stroke-opacity:1;font-family:Bitstream Charter"
       x="803.2132"
       y="341.366"
       id="text2486"
       sodipodi:linespacing="125%"><tspan
         sodipodi:role="line"
         id="tspan2488"
         x="803.2132"
         y="341.366">Физическая память</tspan></text>
    <text
       sodipodi:linespacing="125%"
       id="text2490"
       y="643.88867"
       x="827.55353"
       style="font-size:15.37214184px;font-style:normal;font-variant:normal;font-weight:normal;font-stretch:normal;text-align:start;line-height:125%;writing-mode:lr-tb;text-anchor:start;fill:black;fill-opacity:1;fill-rule:evenodd;stroke:none;stroke-width:1pt;stroke-linecap:butt;stroke-linejoin:miter;stroke-opacity:1;font-family:Bitstream Charter"
       xml:space="preserve"><tspan
         y="643.88867"
         x="827.55353"
         id="tspan2492"
         sodipodi:role="line">Файл</tspan></text>
    <text
       xml:space="preserve"
       style="font-size:15.37214184px;font-style:normal;font-variant:normal;font-weight:normal;font-stretch:normal;text-align:start;line-height:125%;writing-mode:lr-tb;text-anchor:start;fill:black;fill-opacity:1;fill-rule:evenodd;stroke:none;stroke-width:1pt;stroke-linecap:butt;stroke-linejoin:miter;stroke-opacity:1;font-family:Bitstream Charter"
       x="817.47601"
       y="502.01596"
       id="text2498"
       sodipodi:linespacing="125%"><tspan
         sodipodi:role="line"
         id="tspan2500"
         x="817.47601"
         y="502.01596">Область подкачки</tspan></text>
    <text
       sodipodi:linespacing="125%"
       id="text2506"
       y="197.40689"
       x="635.46173"
       style="font-size:15.37214184px;font-style:normal;font-variant:normal;font-weight:normal;font-stretch:normal;text-align:center;line-height:125%;writing-mode:lr-tb;text-anchor:middle;fill:black;fill-opacity:1;fill-rule:evenodd;stroke:none;stroke-width:1pt;stroke-linecap:butt;stroke-linejoin:miter;stroke-opacity:1;font-family:Bitstream Charter"
       xml:space="preserve"><tspan
         y="197.40689"
         x="635.46173"
         id="tspan2508"
         sodipodi:role="line">Виртуальное адресное</tspan><tspan
         y="216.73609"
         x="635.46173"
         sodipodi:role="line"
         id="tspan2510">пространство процесса</tspan></text>
    <text
       xml:space="preserve"
       style="font-size:24px;font-style:normal;font-variant:normal;font-weight:normal;font-stretch:normal;text-align:start;line-height:129.99999523%;writing-mode:lr-tb;text-anchor:start;fill:black;fill-opacity:1;stroke:none;stroke-width:1pt;stroke-linecap:butt;stroke-linejoin:miter;stroke-opacity:1;font-family:Bitstream Vera Sans"
       x="77.363495"
       y="245.20361"
       id="text1342"
       sodipodi:linespacing="130%"><tspan
         sodipodi:role="line"
         id="tspan1352"
         x="77.363495"
         y="245.20361">• Каждый процесс обладает</tspan><tspan
         sodipodi:role="line"
         x="77.363495"
         y="276.40361"
         id="tspan3611">   своим виртуальным адресным</tspan><tspan
         sodipodi:role="line"
         x="77.363495"
         y="307.60361"
         id="tspan7451">   пространством.</tspan><tspan
         sodipodi:role="line"
         x="77.363495"
         y="338.80361"
         id="tspan7431" /><tspan
         sodipodi:role="line"
         x="77.363495"
         y="370.00361"
         id="tspan7447">• Процессоры поддерживают</tspan><tspan
         sodipodi:role="line"
         x="77.363495"
         y="401.20361"
         id="tspan7433">   страничное преобразование</tspan><tspan
         sodipodi:role="line"
         x="77.363495"
         y="432.40361"
         id="tspan7455">   адресов</tspan><tspan
         sodipodi:role="line"
         x="77.363495"
         y="463.60361"
         id="tspan7435" /><tspan
         sodipodi:role="line"
         x="77.363495"
         y="494.8036"
         id="tspan7449">• Страница виртуальной памяти</tspan><tspan
         sodipodi:role="line"
         x="77.363495"
         y="526.0036"
         id="tspan7457">   может соответствовать странице</tspan><tspan
         sodipodi:role="line"
         x="77.363495"
         y="557.2036"
         id="tspan7459">   физической памяти, странице из</tspan><tspan
         sodipodi:role="line"
         x="77.363495"
         y="588.4036"
         id="tspan7461">   файла или устройства подкачки</tspan></text>
    <path
       style="fill:none;fill-opacity:0.75;fill-rule:evenodd;stroke:black;stroke-width:1pt;stroke-linecap:butt;stroke-linejoin:miter;stroke-opacity:1;marker-end:url(#Arrow2Mend)"
       d="M 703.30277,290.75537 L 735.55615,290.75537 L 735.55615,272.83683 L 818.87737,272.83683"
       id="path6272"
       sodipodi:nodetypes="cccc" />
    <path
       sodipodi:nodetypes="cccc"
       id="path7159"
       d="M 703.30277,385.72364 L 749.89098,385.72364 L 749.89098,184.14004 L 818.87737,184.14004"
       style="fill:none;fill-opacity:0.75;fill-rule:evenodd;stroke:black;stroke-width:1pt;stroke-linecap:butt;stroke-linejoin:miter;marker-end:url(#Arrow2Mend);stroke-opacity:1" />
    <path
       sodipodi:nodetypes="cccc"
       id="path7161"
       d="M 703.30277,340.92729 L 735.55615,340.92729 L 735.55615,452.02225 L 835.89998,452.02225"
       style="fill:none;fill-opacity:0.75;fill-rule:evenodd;stroke:black;stroke-width:1pt;stroke-linecap:butt;stroke-linejoin:miter;marker-end:url(#Arrow2Mend);stroke-opacity:1" />
    <path
       style="fill:none;fill-opacity:0.75;fill-rule:evenodd;stroke:black;stroke-width:1pt;stroke-linecap:butt;stroke-linejoin:miter;marker-end:url(#Arrow2Mend);stroke-opacity:1"
       d="M 703.30277,431.41593 L 722.11724,431.41593 L 722.11724,555.05387 L 786.62399,555.05387"
       id="path7163"
       sodipodi:nodetypes="cccc" />
    <path
       style="fill:none;fill-opacity:0.75;fill-rule:evenodd;stroke:black;stroke-width:1pt;stroke-linecap:butt;stroke-linejoin:miter;marker-end:url(#Arrow2Mend);stroke-opacity:1"
       d="M 703.30277,475.31635 L 770.4973,475.31635 L 770.4973,394.68291 L 835.00406,394.68291"
       id="path7165"
       sodipodi:nodetypes="cccc" />
  </g>
  <g
     inkscape:label="Заголовок"
     inkscape:groupmode="layer"
     id="layer1"
     style="display:inline">
    <text
       xml:space="preserve"
       style="font-size:24px;font-style:normal;font-variant:normal;font-weight:normal;font-stretch:normal;text-align:center;line-height:125%;writing-mode:lr-tb;text-anchor:middle;fill:#000000;fill-opacity:1;stroke:none;stroke-width:1pt;stroke-linecap:butt;stroke-linejoin:miter;stroke-opacity:1;font-family:Bitstream Vera Sans"
       x="527.13617"
       y="81.956612"
       id="text1326"
       sodipodi:linespacing="125%"><tspan
         sodipodi:role="line"
         id="tspan1328"
         x="527.13617"
         y="81.956612">Лекция 3: Архитектура операционной системы UNIX. Процессы</tspan></text>
    <text
       xml:space="preserve"
       style="font-size:48px;font-style:normal;font-variant:normal;font-weight:normal;font-stretch:normal;text-align:center;line-height:125%;writing-mode:lr-tb;text-anchor:middle;fill:black;fill-opacity:1;stroke:none;stroke-width:1pt;stroke-linecap:butt;stroke-linejoin:miter;stroke-opacity:1;font-family:Bitstream Vera Sans"
       x="528.27875"
       y="145.50708"
       id="text1330"
       sodipodi:linespacing="125%"><tspan
         sodipodi:role="line"
         id="tspan1332"
         x="528.27875"
         y="145.50708">Управление памятью</tspan></text>
    <text
       xml:space="preserve"
       style="font-size:20.000000px;font-style:normal;font-variant:normal;font-weight:normal;font-stretch:normal;text-align:center;line-height:125.00000%;writing-mode:lr-tb;text-anchor:middle;fill:#000000;fill-opacity:1.0000000;stroke:none;stroke-width:1.0000000pt;stroke-linecap:butt;stroke-linejoin:miter;stroke-opacity:1.0000000;display:inline;font-family:Bitstream Vera Sans"
       x="525.52191"
       y="50.379196"
       id="text10267"
       sodipodi:linespacing="125.00000%"><tspan
         sodipodi:role="line"
         id="tspan10269"
         x="525.52191"
         y="50.379196">UNIX: учебный курс</tspan></text>
  </g>
</svg>
