<?xml version="1.0" encoding="UTF-8" standalone="no"?>
<!-- Creator: CorelDRAW -->
<svg
   xmlns:dc="http://purl.org/dc/elements/1.1/"
   xmlns:cc="http://web.resource.org/cc/"
   xmlns:rdf="http://www.w3.org/1999/02/22-rdf-syntax-ns#"
   xmlns:svg="http://www.w3.org/2000/svg"
   xmlns="http://www.w3.org/2000/svg"
   xmlns:sodipodi="http://sodipodi.sourceforge.net/DTD/sodipodi-0.dtd"
   xmlns:inkscape="http://www.inkscape.org/namespaces/inkscape"
   xml:space="preserve"
   width="210mm"
   height="297mm"
   style="shape-rendering:geometricPrecision; text-rendering:geometricPrecision; image-rendering:optimizeQuality; fill-rule:evenodd; clip-rule:evenodd"
   viewBox="0 0 210 297"
   id="svg2141"
   sodipodi:version="0.32"
   inkscape:version="0.44"
   sodipodi:docname="pages_placement.svg"
   sodipodi:docbase="/home/dralex/bmstu/lug/doc-admin/images"><metadata
   id="metadata2372"><rdf:RDF><cc:Work
       rdf:about=""><dc:format>image/svg+xml</dc:format><dc:type
         rdf:resource="http://purl.org/dc/dcmitype/StillImage" /></cc:Work></rdf:RDF></metadata><sodipodi:namedview
   inkscape:cy="891.14745"
   inkscape:cx="422.75037"
   inkscape:zoom="0.61399264"
   inkscape:window-height="578"
   inkscape:window-width="997"
   inkscape:pageshadow="2"
   inkscape:pageopacity="0.0"
   guidetolerance="10.0"
   gridtolerance="10.0"
   objecttolerance="10.0"
   borderopacity="1.0"
   bordercolor="#666666"
   pagecolor="#ffffff"
   id="base"
   inkscape:window-x="49"
   inkscape:window-y="0"
   inkscape:current-layer="svg2141" />
 <defs
   id="defs2143">
  <style
   type="text/css"
   id="style2145">
   
    .str0 {stroke:black;stroke-width:0.0762}
    .fil1 {fill:none}
    .fil2 {fill:black}
    .fil0 {fill:#E5E5E5}
    .fil3 {fill:white}
   
  </style>
 
  <metadata
   id="CorelCorpID_0Corel-Layer" />
  
  
  
  
  
  
  
  
  
  
  
  
  
  
  
  
  
  
  
  
  
  
  
  
  
  
  
  
  
  
  
  
  
  
  
  
  
  
  
  
  
  
  
  
  
  
  
  
  
  
  
  
  
  
  
  
  
  
  
  
  
  
  
  
  
  
  
  
  
  
  
  
  
  
  
  
  
  
  
  
  
  
  
  
  
  
  
  
  
  
  
  
  
  
  
  
  
  
  
  
  
  
  
  
  
  
  
  
  
  
  
 </defs>
 <path
   style="fill:#e5e5e5;stroke:black;stroke-width:0.28222223;stroke-miterlimit:4;stroke-dasharray:none"
   id="path2149"
   d="M 28.0888,30.644 C 33.2958,25.056 38.1218,28.9676 43.7098,30.1868 C 48.7898,31.3298 54.1238,28.4342 59.3308,27.3928 C 59.3308,28.7898 59.3308,30.1614 59.3308,31.5584 C 59.3308,32.9554 59.3308,34.327 59.3308,35.724 C 54.1238,35.724 48.9168,35.724 43.7098,35.724 C 38.5028,35.724 33.2958,35.724 28.0888,35.724 C 28.0888,34.8858 28.0888,34.0222 28.0888,33.184 C 28.0888,32.3204 28.0888,31.4822 28.0888,30.644 z "
   class="fil0 str0" /><polygon
   style="fill:none;stroke:black;stroke-width:0.28222223;stroke-miterlimit:4;stroke-dasharray:none"
   id="polygon2151"
   points="28.0888,35.724 59.3308,35.724 59.3308,45.884 28.0888,45.884 28.0888,35.724 "
   class="fil1 str0" /><polygon
   style="fill:none;stroke:black;stroke-width:0.28222223;stroke-miterlimit:4;stroke-dasharray:none"
   id="polygon2153"
   points="28.0888,45.884 59.3308,45.884 59.3308,56.0694 28.0888,56.0694 28.0888,45.884 "
   class="fil1 str0" /><polygon
   style="fill:none;stroke:black;stroke-width:0.28222223;stroke-miterlimit:4;stroke-dasharray:none"
   id="polygon2155"
   points="28.0888,56.0694 59.3308,56.0694 59.3308,66.2294 28.0888,66.2294 28.0888,56.0694 "
   class="fil1 str0" /><polygon
   style="fill:none;stroke:black;stroke-width:0.28222223;stroke-miterlimit:4;stroke-dasharray:none"
   id="polygon2157"
   points="28.0888,66.2294 59.3308,66.2294 59.3308,76.4148 28.0888,76.4148 28.0888,66.2294 "
   class="fil1 str0" /><polygon
   style="fill:none;stroke:black;stroke-width:0.28222223;stroke-miterlimit:4;stroke-dasharray:none"
   id="polygon2159"
   points="28.0888,76.4148 59.3308,76.4148 59.3308,86.5748 28.0888,86.5748 28.0888,76.4148 "
   class="fil1 str0" /><path
   style="fill:#e5e5e5;stroke:black;stroke-width:0.28222223;stroke-miterlimit:4;stroke-dasharray:none"
   id="path2161"
   d="M 28.0888,86.5748 C 33.2958,86.5748 38.5028,86.5748 43.7098,86.5748 C 48.9168,86.5748 54.1238,86.5748 59.3308,86.5748 C 59.3308,87.794 59.3308,89.0386 59.3308,90.2578 C 59.3308,91.477 59.3308,92.6962 59.3308,93.9154 C 54.1238,95.3378 49.3994,93.255 43.7098,91.3754 C 38.7568,89.699 33.2958,92.366 28.0888,93.4074 C 28.0888,92.2644 28.0888,91.1214 28.0888,90.0038 C 28.0888,88.8608 28.0888,87.7178 28.0888,86.5748 z "
   class="fil0 str0" /><polygon
   style="fill:none;stroke:black;stroke-width:0.28222223;stroke-miterlimit:4;stroke-dasharray:none"
   id="polygon2241"
   points="95.9576,14.134 121.485,14.134 121.485,20.6364 95.9576,20.6364 95.9576,14.134 "
   class="fil1 str0" /><polygon
   style="fill:#e5e5e5;stroke:black;stroke-width:0.28222223;stroke-miterlimit:4;stroke-dasharray:none"
   id="polygon2243"
   points="95.9576,20.6364 121.485,20.6364 121.485,27.1642 95.9576,27.1642 95.9576,20.6364 "
   class="fil0 str0" /><polygon
   style="fill:#e5e5e5;stroke:black;stroke-width:0.28222223;stroke-miterlimit:4;stroke-dasharray:none"
   id="polygon2245"
   points="95.9576,27.1642 121.485,27.1642 121.485,33.6666 95.9576,33.6666 95.9576,27.1642 "
   class="fil0 str0" /><polygon
   style="fill:none;stroke:black;stroke-width:0.28222223;stroke-miterlimit:4;stroke-dasharray:none"
   id="polygon2247"
   points="95.9576,33.6666 121.485,33.6666 121.485,40.1944 95.9576,40.1944 95.9576,33.6666 "
   class="fil1 str0" /><polygon
   style="fill:none;stroke:black;stroke-width:0.28222223;stroke-miterlimit:4;stroke-dasharray:none"
   id="polygon2249"
   points="95.9576,40.1944 121.485,40.1944 121.485,46.7222 95.9576,46.7222 95.9576,40.1944 "
   class="fil1 str0" /><polyline
   style="fill:none;stroke:black;stroke-width:0.28222223;stroke-miterlimit:4;stroke-dasharray:none"
   id="polyline2283"
   points="59.3308,41.0072 71.7768,41.0072 71.7768,17.1566 94.4082,17.1566 "
   class="fil1 str0" /><polygon
   style="fill:black;stroke-width:0.28222223;stroke-miterlimit:4;stroke-dasharray:none"
   id="polygon2285"
   points="94.2558,16.2168 95.9576,17.1566 94.2558,18.071 94.2558,16.2168 "
   class="fil2" /><polyline
   style="fill:none;stroke:black;stroke-width:0.28222223;stroke-miterlimit:4;stroke-dasharray:none"
   id="polyline2287"
   points="59.3308,61.8352 76.4758,61.8352 76.4758,36.9686 94.4082,36.9686 "
   class="fil1 str0" /><polygon
   style="fill:black;stroke-width:0.28222223;stroke-miterlimit:4;stroke-dasharray:none"
   id="polygon2289"
   points="94.2558,36.0288 95.9576,36.9686 94.2558,37.9084 94.2558,36.0288 "
   class="fil2" /><path
   style="fill:none;stroke:black;stroke-width:0.28222223;stroke-miterlimit:4;stroke-dasharray:none"
   id="path2295"
   d="M 109.064,55.79 L 146.3258,55.79 C 148.18,55.79 149.704,57.2886 149.704,59.1428 L 149.704,78.9548 C 149.704,80.809 148.18,82.3076 146.3258,82.3076 L 109.064,82.3076 C 107.2098,82.3076 105.6858,80.809 105.6858,78.9548 L 105.6858,59.1428 C 105.6858,57.2886 107.2098,55.79 109.064,55.79 L 109.064,55.79 z "
   class="fil1 str0" /><polygon
   style="fill:#e5e5e5;stroke:black;stroke-width:0.28222223;stroke-miterlimit:4;stroke-dasharray:none"
   id="polygon2297"
   points="116.786,70.2172 139.29,70.2172 139.29,74.4336 116.786,74.4336 116.786,70.2172 "
   class="fil0 str0" /><polygon
   style="fill:none;stroke:black;stroke-width:0.28222223;stroke-miterlimit:4;stroke-dasharray:none"
   id="polygon2299"
   points="116.786,74.4336 139.29,74.4336 139.29,78.6246 116.786,78.6246 116.786,74.4336 "
   class="fil1 str0" /><polygon
   style="fill:none;stroke:black;stroke-width:0.28222223;stroke-miterlimit:4;stroke-dasharray:none"
   id="polygon2301"
   points="116.786,61.4796 139.29,61.4796 139.29,65.696 116.786,65.696 116.786,61.4796 "
   class="fil1 str0" /><polyline
   style="fill:none;stroke:black;stroke-width:0.28222223;stroke-miterlimit:4;stroke-dasharray:none"
   id="polyline2303"
   points="59.3308,50.7354 83.1814,50.7354 83.1814,63.5116 115.236,63.5116 "
   class="fil1 str0" /><polygon
   style="fill:black;stroke-width:0.28222223;stroke-miterlimit:4;stroke-dasharray:none"
   id="polygon2305"
   points="115.084,62.5718 116.786,63.5116 115.084,64.426 115.084,62.5718 "
   class="fil2" /><polyline
   style="fill:none;stroke:black;stroke-width:0.28222223;stroke-miterlimit:4;stroke-dasharray:none"
   id="polyline2307"
   points="59.3308,81.317 82.521,81.317 82.521,76.9228 115.236,76.9228 "
   class="fil1 str0" /><polygon
   style="fill:black;stroke-width:0.28222223;stroke-miterlimit:4;stroke-dasharray:none"
   id="polygon2309"
   points="115.084,76.0084 116.786,76.9228 115.084,77.8626 115.084,76.0084 "
   class="fil2" /><polygon
   style="fill:#e5e5e5;stroke:black;stroke-width:0.28222223;stroke-miterlimit:4;stroke-dasharray:none"
   id="polygon2347"
   points="89.5822,90.0292 113.407,90.0292 113.407,95.922 89.5822,95.922 89.5822,90.0292 "
   class="fil0 str0" /><polygon
   style="fill:none;stroke:black;stroke-width:0.28222223;stroke-miterlimit:4;stroke-dasharray:none"
   id="polygon2349"
   points="89.5822,95.922 113.407,95.922 113.407,101.789 89.5822,101.789 89.5822,95.922 "
   class="fil1 str0" /><polygon
   style="fill:#e5e5e5;stroke:black;stroke-width:0.28222223;stroke-miterlimit:4;stroke-dasharray:none"
   id="polygon2351"
   points="89.5822,101.789 113.407,101.789 113.407,107.682 89.5822,107.682 89.5822,101.789 "
   class="fil0 str0" /><polygon
   style="fill:#e5e5e5;stroke:black;stroke-width:0.28222223;stroke-miterlimit:4;stroke-dasharray:none"
   id="polygon2353"
   points="89.5822,107.682 113.407,107.682 113.407,113.55 89.5822,113.55 89.5822,107.682 "
   class="fil0 str0" /><polyline
   style="fill:none;stroke:black;stroke-width:0.28222223;stroke-miterlimit:4;stroke-dasharray:none"
   id="polyline2363"
   points="59.3308,71.5634 72.4372,71.5634 72.4372,99.4526 88.0328,99.4526 "
   class="fil1 str0" /><polygon
   style="fill:black;stroke-width:0.28222223;stroke-miterlimit:4;stroke-dasharray:none"
   id="polygon2365"
   points="87.8804,98.5128 89.5822,99.4526 87.8804,100.392 87.8804,98.5128 "
   class="fil2" />
<text
   xml:space="preserve"
   style="font-size:3.38666677px;font-style:normal;font-variant:normal;font-weight:normal;font-stretch:normal;text-align:start;line-height:125%;writing-mode:lr-tb;text-anchor:start;fill:black;fill-opacity:1;stroke:none;stroke-width:1pt;stroke-linecap:butt;stroke-linejoin:miter;stroke-opacity:1;font-family:Bitstream Charter"
   x="91.549171"
   y="51.670753"
   id="text2486"
   sodipodi:linespacing="125%"><tspan
     sodipodi:role="line"
     id="tspan2488"
     x="91.549171"
     y="51.670753">Физическая память</tspan></text>

<text
   sodipodi:linespacing="125%"
   id="text2490"
   y="118.32012"
   x="97.294807"
   style="font-size:3.38666677px;font-style:normal;font-variant:normal;font-weight:normal;font-stretch:normal;text-align:start;line-height:125%;writing-mode:lr-tb;text-anchor:start;fill:black;fill-opacity:1;stroke:none;stroke-width:1pt;stroke-linecap:butt;stroke-linejoin:miter;stroke-opacity:1;font-family:Bitstream Charter"
   xml:space="preserve"><tspan
     y="118.32012"
     x="97.294807"
     id="tspan2492"
     sodipodi:role="line">Файл</tspan></text>

<text
   xml:space="preserve"
   style="font-size:3.38666677px;font-style:normal;font-variant:normal;font-weight:normal;font-stretch:normal;text-align:start;line-height:125%;writing-mode:lr-tb;text-anchor:start;fill:black;fill-opacity:1;stroke:none;stroke-width:1pt;stroke-linecap:butt;stroke-linejoin:miter;stroke-opacity:1;font-family:Bitstream Charter"
   x="111.35357"
   y="87.063866"
   id="text2498"
   sodipodi:linespacing="125%"><tspan
     sodipodi:role="line"
     id="tspan2500"
     x="111.35357"
     y="87.063866">Область подкачки</tspan></text>

<text
   sodipodi:linespacing="125%"
   id="text2506"
   y="19.954845"
   x="44.205135"
   style="font-size:3.38666677px;font-style:normal;font-variant:normal;font-weight:normal;font-stretch:normal;text-align:center;line-height:125%;writing-mode:lr-tb;text-anchor:middle;fill:black;fill-opacity:1;stroke:none;stroke-width:1pt;stroke-linecap:butt;stroke-linejoin:miter;stroke-opacity:1;font-family:Bitstream Charter"
   xml:space="preserve"><tspan
     y="19.954845"
     x="44.205136"
     id="tspan2508"
     sodipodi:role="line">Виртуальное адресное</tspan><tspan
     y="24.2133"
     x="44.205135"
     sodipodi:role="line"
     id="tspan2510">пространство процесса</tspan></text>

</svg>