<?xml version="1.0" encoding="UTF-8" standalone="no"?>
<!-- Creator: CorelDRAW -->
<svg
   xmlns:dc="http://purl.org/dc/elements/1.1/"
   xmlns:cc="http://web.resource.org/cc/"
   xmlns:rdf="http://www.w3.org/1999/02/22-rdf-syntax-ns#"
   xmlns:svg="http://www.w3.org/2000/svg"
   xmlns="http://www.w3.org/2000/svg"
   xmlns:sodipodi="http://inkscape.sourceforge.net/DTD/sodipodi-0.dtd"
   xmlns:inkscape="http://www.inkscape.org/namespaces/inkscape"
   xml:space="preserve"
   width="210mm"
   height="297mm"
   style="shape-rendering:geometricPrecision; text-rendering:geometricPrecision; image-rendering:optimizeQuality; fill-rule:evenodd; clip-rule:evenodd"
   viewBox="0 0 210 297"
   id="svg2141"
   sodipodi:version="0.32"
   inkscape:version="0.43"
   sodipodi:docname="shmem.svg"
   sodipodi:docbase="/home/dralex/Droggie/doc-admin/images"><metadata
   id="metadata2372"><rdf:RDF><cc:Work
       rdf:about=""><dc:format>image/svg+xml</dc:format><dc:type
         rdf:resource="http://purl.org/dc/dcmitype/StillImage" /></cc:Work></rdf:RDF></metadata><sodipodi:namedview
   inkscape:cy="892.59675"
   inkscape:cx="328.11275"
   inkscape:zoom="1.7366334"
   inkscape:window-height="1028"
   inkscape:window-width="1363"
   inkscape:pageshadow="2"
   inkscape:pageopacity="0.0"
   guidetolerance="10.0"
   gridtolerance="10.0"
   objecttolerance="10.0"
   borderopacity="1.0"
   bordercolor="#666666"
   pagecolor="#ffffff"
   id="base"
   inkscape:window-x="37"
   inkscape:window-y="0"
   inkscape:current-layer="svg2141"
   showguides="true"
   inkscape:guide-bbox="true" />
 <defs
   id="defs2143"><marker
   inkscape:stockid="Arrow2Mend"
   orient="auto"
   refY="0.0"
   refX="0.0"
   id="Arrow2Mend"
   style="overflow:visible;"><path
     id="path3374"
     style="font-size:12.0;fill-rule:evenodd;stroke-width:0.62500000;stroke-linejoin:round;"
     d="M 8.7185878,4.0337352 L -2.2072895,0.016013256 L 8.7185884,-4.0017078 C 6.9730900,-1.6296469 6.9831476,1.6157441 8.7185878,4.0337352 z "
     transform="scale(0.6) rotate(180) translate(-5,0)" /></marker>
  <style
   type="text/css"
   id="style2145">
   
    .str0 {stroke:black;stroke-width:0.0762}
    .fil1 {fill:none}
    .fil2 {fill:black}
    .fil0 {fill:#E5E5E5}
    .fil3 {fill:white}
   
  </style>
 
  <metadata
   id="CorelCorpID_0Corel-Layer" />
  
  
  
  
  
  
  
  
  
  
  
  
  
  
  
  
  
  
  
  
  
  
  
  
  
  
  
  
  
  
  
  
  
  
  
  
  
  
  
  
  
  
  
  
  
  
  
  
  
  
  
  
  
  
  
  
  
  
  
  
  
  
  
  
  
  
  
  
  
  
  
  
  
  
  
  
  
  
  
  
  
  
  
  
  
  
  
  
  
  
  
  
  
  
  
  
  
  
  
  
  
  
  
  
  
  
  
  
  
  
  
 </defs>
 
<g
   id="g1466"
   transform="translate(-2.48717,3.574918e-14)"><g
     transform="translate(-1.783298,3.574918e-14)"
     id="g1459"><polygon
       style="fill:none;stroke:#000000;stroke-width:0.28222224;stroke-miterlimit:4;stroke-dasharray:none"
       id="polygon2241"
       points="95.9576,14.134 121.485,14.134 121.485,20.6364 95.9576,20.6364 95.9576,14.134 "
       class="fil1 str0"
       transform="translate(-11.37578,3.574918e-14)" /><polygon
       style="fill:#e5e5e5;stroke:#000000;stroke-width:0.28222224;stroke-miterlimit:4;stroke-dasharray:none"
       id="polygon2243"
       points="95.9576,20.6364 121.485,20.6364 121.485,27.1642 95.9576,27.1642 95.9576,20.6364 "
       class="fil0 str0"
       transform="translate(-11.37578,3.574918e-14)" /><polygon
       style="fill:#e5e5e5;stroke:#000000;stroke-width:0.28222224;stroke-miterlimit:4;stroke-dasharray:none"
       id="polygon2245"
       points="95.9576,27.1642 121.485,27.1642 121.485,33.6666 95.9576,33.6666 95.9576,27.1642 "
       class="fil0 str0"
       transform="translate(-11.37578,3.574918e-14)" /><polygon
       style="fill:none;stroke:#000000;stroke-width:0.28222224;stroke-miterlimit:4;stroke-dasharray:none"
       id="polygon2247"
       points="95.9576,33.6666 121.485,33.6666 121.485,40.1944 95.9576,40.1944 95.9576,33.6666 "
       class="fil1 str0"
       transform="translate(-11.37578,3.574918e-14)" /><polygon
       style="fill:none;stroke:#000000;stroke-width:0.28222224;stroke-miterlimit:4;stroke-dasharray:none"
       id="polygon2249"
       points="95.9576,40.1944 121.485,40.1944 121.485,46.7222 95.9576,46.7222 95.9576,40.1944 "
       class="fil1 str0"
       transform="translate(-11.37578,3.574918e-14)" /></g><text
     sodipodi:linespacing="125%"
     id="text2486"
     y="51.670753"
     x="80.173393"
     style="font-size:3.38666677px;font-style:normal;font-variant:normal;font-weight:normal;font-stretch:normal;text-align:start;line-height:125%;writing-mode:lr-tb;text-anchor:start;fill:#000000;fill-opacity:1;stroke:none;stroke-width:1pt;stroke-linecap:butt;stroke-linejoin:miter;stroke-opacity:1;font-family:Bitstream Charter"
     xml:space="preserve"><tspan
       y="51.670753"
       x="80.173393"
       id="tspan2488"
       sodipodi:role="line">Физическая память</tspan></text>
</g>


<g
   id="g1435"><path
     class="fil0 str0"
     d="M 28.0888,30.644 C 33.2958,25.056 38.1218,28.9676 43.7098,30.1868 C 48.7898,31.3298 54.1238,28.4342 59.3308,27.3928 C 59.3308,28.7898 59.3308,30.1614 59.3308,31.5584 C 59.3308,32.9554 59.3308,34.327 59.3308,35.724 C 54.1238,35.724 48.9168,35.724 43.7098,35.724 C 38.5028,35.724 33.2958,35.724 28.0888,35.724 C 28.0888,34.8858 28.0888,34.0222 28.0888,33.184 C 28.0888,32.3204 28.0888,31.4822 28.0888,30.644 z "
     id="path2149"
     style="fill:#e5e5e5;stroke:black;stroke-width:0.28222223;stroke-miterlimit:4;stroke-dasharray:none" /><polygon
     class="fil1 str0"
     points="28.0888,35.724 59.3308,35.724 59.3308,45.884 28.0888,45.884 28.0888,35.724 "
     id="polygon2151"
     style="fill:none;stroke:black;stroke-width:0.28222223;stroke-miterlimit:4;stroke-dasharray:none" /><polygon
     class="fil1 str0"
     points="28.0888,45.884 59.3308,45.884 59.3308,56.0694 28.0888,56.0694 28.0888,45.884 "
     id="polygon2153"
     style="fill:none;stroke:black;stroke-width:0.28222223;stroke-miterlimit:4;stroke-dasharray:none" /><polygon
     class="fil1 str0"
     points="28.0888,56.0694 59.3308,56.0694 59.3308,66.2294 28.0888,66.2294 28.0888,56.0694 "
     id="polygon2155"
     style="fill:none;stroke:black;stroke-width:0.28222223;stroke-miterlimit:4;stroke-dasharray:none" /><polygon
     class="fil1 str0"
     points="28.0888,66.2294 59.3308,66.2294 59.3308,76.4148 28.0888,76.4148 28.0888,66.2294 "
     id="polygon2157"
     style="fill:none;stroke:black;stroke-width:0.28222223;stroke-miterlimit:4;stroke-dasharray:none" /><polygon
     class="fil1 str0"
     points="28.0888,76.4148 59.3308,76.4148 59.3308,86.5748 28.0888,86.5748 28.0888,76.4148 "
     id="polygon2159"
     style="fill:none;stroke:black;stroke-width:0.28222223;stroke-miterlimit:4;stroke-dasharray:none" /><path
     class="fil0 str0"
     d="M 28.0888,86.5748 C 33.2958,86.5748 38.5028,86.5748 43.7098,86.5748 C 48.9168,86.5748 54.1238,86.5748 59.3308,86.5748 C 59.3308,87.794 59.3308,89.0386 59.3308,90.2578 C 59.3308,91.477 59.3308,92.6962 59.3308,93.9154 C 54.1238,95.3378 49.3994,93.255 43.7098,91.3754 C 38.7568,89.699 33.2958,92.366 28.0888,93.4074 C 28.0888,92.2644 28.0888,91.1214 28.0888,90.0038 C 28.0888,88.8608 28.0888,87.7178 28.0888,86.5748 z "
     id="path2161"
     style="fill:#e5e5e5;stroke:black;stroke-width:0.28222223;stroke-miterlimit:4;stroke-dasharray:none" /><text
     xml:space="preserve"
     style="font-size:3.38666677px;font-style:normal;font-variant:normal;font-weight:normal;font-stretch:normal;text-align:center;line-height:125%;writing-mode:lr-tb;text-anchor:middle;fill:#000000;fill-opacity:1;stroke:none;stroke-width:1pt;stroke-linecap:butt;stroke-linejoin:miter;stroke-opacity:1;font-family:Bitstream Charter"
     x="44.205135"
     y="19.954845"
     id="text2506"
     sodipodi:linespacing="125%"><tspan
       sodipodi:role="line"
       id="tspan2508"
       x="44.205136"
       y="19.954845">Виртуальное адресное</tspan><tspan
       id="tspan2510"
       sodipodi:role="line"
       x="44.205135"
       y="24.188179">пространство процесса А</tspan></text>
</g>
<g
   id="g1447"
   transform="translate(-3.183031e-6,3.574918e-14)"><path
     style="fill:#e5e5e5;stroke:#000000;stroke-width:0.28222224;stroke-miterlimit:4;stroke-dasharray:none"
     id="path1415"
     d="M 125.59547,30.644 C 130.80247,25.056 135.62847,28.9676 141.21647,30.1868 C 146.29647,31.3298 151.63047,28.4342 156.83747,27.3928 C 156.83747,28.7898 156.83747,30.1614 156.83747,31.5584 C 156.83747,32.9554 156.83747,34.327 156.83747,35.724 C 151.63047,35.724 146.42347,35.724 141.21647,35.724 C 136.00947,35.724 130.80247,35.724 125.59547,35.724 C 125.59547,34.8858 125.59547,34.0222 125.59547,33.184 C 125.59547,32.3204 125.59547,31.4822 125.59547,30.644 z "
     class="fil0 str0" /><polygon
     transform="translate(97.50667,3.574918e-14)"
     style="fill:none;stroke:#000000;stroke-width:0.28222224;stroke-miterlimit:4;stroke-dasharray:none"
     id="polygon1417"
     points="28.0888,35.724 59.3308,35.724 59.3308,45.884 28.0888,45.884 28.0888,35.724 "
     class="fil1 str0" /><polygon
     transform="translate(97.50667,3.574918e-14)"
     style="fill:none;stroke:#000000;stroke-width:0.28222224;stroke-miterlimit:4;stroke-dasharray:none"
     id="polygon1419"
     points="28.0888,45.884 59.3308,45.884 59.3308,56.0694 28.0888,56.0694 28.0888,45.884 "
     class="fil1 str0" /><polygon
     transform="translate(97.50667,3.574918e-14)"
     style="fill:none;stroke:#000000;stroke-width:0.28222224;stroke-miterlimit:4;stroke-dasharray:none"
     id="polygon1421"
     points="28.0888,56.0694 59.3308,56.0694 59.3308,66.2294 28.0888,66.2294 28.0888,56.0694 "
     class="fil1 str0" /><polygon
     transform="translate(97.50667,3.574918e-14)"
     style="fill:none;stroke:#000000;stroke-width:0.28222224;stroke-miterlimit:4;stroke-dasharray:none"
     id="polygon1423"
     points="28.0888,66.2294 59.3308,66.2294 59.3308,76.4148 28.0888,76.4148 28.0888,66.2294 "
     class="fil1 str0" /><polygon
     transform="translate(97.50667,3.574918e-14)"
     style="fill:none;stroke:#000000;stroke-width:0.28222224;stroke-miterlimit:4;stroke-dasharray:none"
     id="polygon1425"
     points="28.0888,76.4148 59.3308,76.4148 59.3308,86.5748 28.0888,86.5748 28.0888,76.4148 "
     class="fil1 str0" /><path
     style="fill:#e5e5e5;stroke:#000000;stroke-width:0.28222224;stroke-miterlimit:4;stroke-dasharray:none"
     id="path1427"
     d="M 125.59547,86.5748 C 130.80247,86.5748 136.00947,86.5748 141.21647,86.5748 C 146.42347,86.5748 151.63047,86.5748 156.83747,86.5748 C 156.83747,87.794 156.83747,89.0386 156.83747,90.2578 C 156.83747,91.477 156.83747,92.6962 156.83747,93.9154 C 151.63047,95.3378 146.90607,93.255 141.21647,91.3754 C 136.26347,89.699 130.80247,92.366 125.59547,93.4074 C 125.59547,92.2644 125.59547,91.1214 125.59547,90.0038 C 125.59547,88.8608 125.59547,87.7178 125.59547,86.5748 z "
     class="fil0 str0" /><text
     sodipodi:linespacing="125%"
     id="text1429"
     y="19.954845"
     x="141.71181"
     style="font-size:3.38666677px;font-style:normal;font-variant:normal;font-weight:normal;font-stretch:normal;text-align:center;line-height:125%;writing-mode:lr-tb;text-anchor:middle;fill:#000000;fill-opacity:1;stroke:none;stroke-width:1pt;stroke-linecap:butt;stroke-linejoin:miter;stroke-opacity:1;font-family:Bitstream Charter"
     xml:space="preserve"><tspan
       y="19.954845"
       x="141.71181"
       id="tspan1431"
       sodipodi:role="line">Виртуальное адресное</tspan><tspan
       y="24.188179"
       x="141.71181"
       sodipodi:role="line"
       id="tspan1433">пространство процесса Б</tspan></text>
</g><rect
   style="opacity:1;fill:none;fill-opacity:1;stroke:#000000;stroke-width:0.56444448;stroke-miterlimit:4;stroke-dasharray:none;stroke-dashoffset:0;stroke-opacity:1"
   id="rect1476"
   width="31.256252"
   height="30.796608"
   x="28.0387"
   y="45.570992"
   rx="0"
   ry="0" /><rect
   ry="0"
   rx="0"
   y="55.913136"
   x="125.48468"
   height="30.796608"
   width="31.256252"
   id="rect2351"
   style="opacity:1;fill:none;fill-opacity:1;stroke:#000000;stroke-width:0.56444448;stroke-miterlimit:4;stroke-dasharray:none;stroke-dashoffset:0;stroke-opacity:1" /><path
   style="fill:none;fill-opacity:0.75;fill-rule:evenodd;stroke:#000000;stroke-width:0.28222223;stroke-linecap:butt;stroke-linejoin:miter;stroke-opacity:1;stroke-miterlimit:4;stroke-dasharray:none;marker-end:url(#Arrow2Mend)"
   d="M 59.154043,50.795668 L 65.654487,50.795668 L 65.654487,36.657201 L 78.980398,36.657201"
   id="path2353"
   sodipodi:nodetypes="cccc" /><path
   sodipodi:nodetypes="cccc"
   id="path3408"
   d="M 59.154043,61.19638 L 68.90471,61.19638 L 68.90471,43.320157 L 78.980398,43.320157"
   style="fill:none;fill-opacity:0.75;fill-rule:evenodd;stroke:#000000;stroke-width:0.28222224;stroke-linecap:butt;stroke-linejoin:miter;marker-end:url(#Arrow2Mend);stroke-miterlimit:4;stroke-dasharray:none;stroke-opacity:1" /><path
   style="fill:none;fill-opacity:0.75;fill-rule:evenodd;stroke:#000000;stroke-width:0.28222224;stroke-linecap:butt;stroke-linejoin:miter;marker-end:url(#Arrow2Mend);stroke-miterlimit:4;stroke-dasharray:none;stroke-opacity:1"
   d="M 59.154043,70.947047 L 73.780043,70.947047 L 73.780043,17.31838 L 78.980398,17.31838"
   id="path3410"
   sodipodi:nodetypes="cccc" /><path
   sodipodi:nodetypes="cccc"
   id="path3412"
   d="M 125.0753,60.871357 L 119.87495,60.871357 L 119.87495,36.982223 L 106.87406,36.982223"
   style="fill:none;fill-opacity:0.75;fill-rule:evenodd;stroke:#000000;stroke-width:0.28222224;stroke-linecap:butt;stroke-linejoin:miter;marker-end:url(#Arrow2Mend);stroke-miterlimit:4;stroke-dasharray:none;stroke-opacity:1" /><path
   style="fill:none;fill-opacity:0.75;fill-rule:evenodd;stroke:#000000;stroke-width:0.28222224;stroke-linecap:butt;stroke-linejoin:miter;marker-end:url(#Arrow2Mend);stroke-miterlimit:4;stroke-dasharray:none;stroke-opacity:1"
   d="M 125.0753,71.272069 L 116.2997,71.272069 L 116.2997,43.482668 L 106.71155,43.482668"
   id="path3414"
   sodipodi:nodetypes="cccc" /><path
   sodipodi:nodetypes="cccc"
   id="path3416"
   d="M 125.0753,81.022736 L 112.07441,81.022736 L 112.07441,17.31838 L 106.87406,17.31838"
   style="fill:none;fill-opacity:0.75;fill-rule:evenodd;stroke:#000000;stroke-width:0.28222224;stroke-linecap:butt;stroke-linejoin:miter;marker-end:url(#Arrow2Mend);stroke-miterlimit:4;stroke-dasharray:none;stroke-opacity:1" /></svg>